<?xml version="1.0" encoding="UTF-8"?>
<svg width="40px" height="40px" viewBox="0 0 40 40" version="1.1" xmlns="http://www.w3.org/2000/svg" xmlns:xlink="http://www.w3.org/1999/xlink">
    <title>圆形</title>
    <g id="页面-1" stroke="none" stroke-width="1" fill="none" fill-rule="evenodd">
        <g id="自定义预设-4" transform="translate(-119.000000, -8.000000)" fill="#0096F6">
            <g id="圆形" transform="translate(119.000000, 8.000000)">
                <path d="M25.337467,37.1954704 L25.9364173,39.1042484 C24.0608346,39.6864244 22.0670371,40 20,40 C18.3067282,40 16.662604,39.7895741 15.0923509,39.3934459 L15.5795167,37.4531929 C16.9938313,37.810295 18.4747617,38 20,38 C21.8583833,38 23.6509892,37.7183733 25.337467,37.1954704 Z M10.617791,35.3644722 L9.57294303,37.0701789 C7.85025742,36.0156529 6.29955004,34.7076758 4.97269613,33.1981228 L6.47745599,31.880619 C7.67172626,33.2388673 9.06739555,34.4157093 10.617791,35.3644722 Z M34.1390515,31.1406496 L35.7059622,32.3836878 C34.4623048,33.958833 32.9867572,35.3424145 31.3308337,36.4829177 L30.2020434,34.8316683 C31.6922676,33.804654 33.0200643,32.5588537 34.1390515,31.1406496 Z M3.5501396,27.3187155 L1.7214452,28.1298138 C0.916821928,26.3234655 0.372100512,24.3758308 0.134786155,22.334415 L2.12243163,22.1106205 C2.33669025,23.9450929 2.82678622,25.6953179 3.5501396,27.3187155 Z M37.9617516,21.1829049 L39.9582716,21.302419 C39.8261486,23.3578848 39.3835234,25.3288356 38.6768094,27.1688579 L36.8079118,26.4551389 C37.4434329,24.8014146 37.8419162,23.0301333 37.9617516,21.1829049 Z M2.34839962,10.5883738 L4.10951631,11.5371083 C3.27034242,13.1095122 2.65773119,14.8210961 2.31527005,16.6282725 L0.350120576,16.2545833 C0.731209089,14.2430368 1.4135311,12.3380713 2.34839962,10.5883738 Z M39.4320813,15.2481545 L37.4898642,15.7274079 C37.0560648,13.9454606 36.3570315,12.2673518 35.4369485,10.7372654 L37.1503652,9.70508026 C38.1727895,11.4046867 38.9497175,13.268734 39.4320813,15.2481545 Z M10.7803947,2.24714171 L11.7058766,4.02059555 C10.0889244,4.86158863 8.61569585,5.94080697 7.33270732,7.21173422 L5.91950918,5.79648545 C7.34535843,4.38290945 8.98291352,3.18253493 10.7803947,2.24714171 Z M33.2735176,5.03930091 L31.9446843,6.53405559 C30.6013286,5.34158576 29.0782912,4.34706944 27.4213027,3.59623718 L28.2506804,1.77576743 C30.0906013,2.61007812 31.7817922,3.71483449 33.2735176,5.03930091 Z M20,-4.54747351e-13 C20.8436535,-4.54747351e-13 21.6751066,0.052236498 22.4913013,0.153651604 L22.2405985,2.13809111 C21.5065279,2.04694577 20.7587463,2 20,2 C18.910461,2 17.8435316,2.096803 16.8073433,2.28227746 L16.4501888,0.314074029 C17.6022663,0.107709346 18.7885547,-4.54747351e-13 20,-4.54747351e-13 Z" id="形状结合"></path>
            </g>
        </g>
    </g>
</svg>