<?xml version="1.0" encoding="UTF-8"?>
<svg width="40px" height="40px" viewBox="0 0 40 40" version="1.1" xmlns="http://www.w3.org/2000/svg" xmlns:xlink="http://www.w3.org/1999/xlink">
    <title>多边形</title>
    <g id="页面-1" stroke="none" stroke-width="1" fill="none" fill-rule="evenodd">
        <g id="自定义预设-4" transform="translate(-319.000000, -8.000000)" fill="#0096F6">
            <g id="多边形" transform="translate(319.000000, 8.000000)">
                <path d="M17,37 L17,39 L11,39 L11,37 L17,37 Z M30,37 L30,39 L24,39 L24,37 L30,37 Z M6.50471842,28.934249 L8.35882039,34.6405881 L6.45670736,35.2586221 L4.60260539,29.552283 L6.50471842,28.934249 Z M33.6486019,28.4822226 L35.5507149,29.1002566 L33.696613,34.8065957 L31.7944999,34.1885617 L33.6486019,28.4822226 Z M2.47139323,16.5697471 L4.32549519,22.2760861 L2.42338216,22.8941201 L0.569280196,17.187781 L2.47139323,16.5697471 Z M37.6736263,16.1416465 L39.5757393,16.7596805 L37.7216374,22.4660196 L35.8195243,21.8479856 L37.6736263,16.1416465 Z M9.13662901,8.90113799 L10.3121995,10.519172 L5.45809755,14.0458835 L4.28252705,12.4278495 L9.13662901,8.90113799 Z M30.5209638,8.64356963 L35.3750657,12.1702811 L34.1994952,13.7883151 L29.3453933,10.2616036 L30.5209638,8.64356963 Z M20.0193768,1.00386016 L24.8734788,4.53057167 L23.6979083,6.14860566 L19.9892802,3.45486016 L15.9766522,6.37120088 L14.8010817,4.75316689 L19.6551837,1.22645537 L19.7562802,1.36586016 L20.0193768,1.00386016 Z" id="形状结合"></path>
            </g>
        </g>
    </g>
</svg>