<?xml version="1.0" encoding="UTF-8"?>
<svg width="40px" height="40px" viewBox="0 0 40 40" version="1.1" xmlns="http://www.w3.org/2000/svg" xmlns:xlink="http://www.w3.org/1999/xlink">
    <title>拖动</title>
    <g id="页面-1" stroke="none" stroke-width="1" fill="none" fill-rule="evenodd">
        <g id="自定义预设-4" transform="translate(-19.000000, -8.000000)" fill="#0096F6" fill-rule="nonzero">
            <g id="拖动" transform="translate(19.000000, 8.000000)">
                <path d="M32.4492017,15.5312941 L32.5613208,15.5312941 C34.6353255,15.5312941 36.3165141,17.2148767 36.3165141,19.2916744 L36.3165141,30.4596985 C36.3165141,35.7285001 32.0506002,40 26.7883821,40 L19.0158522,40 C15.9692505,39.9994244 13.1067839,38.541384 11.314943,36.077426 L3.70939494,25.6250093 C2.68503445,24.2168241 2.77866071,22.2855331 3.9344312,20.9830375 L4.28794565,20.5846355 C5.61003382,19.0955656 7.88732918,18.9615014 9.37440407,20.2851856 C9.41031412,20.3171057 9.44542617,20.3496242 9.47993971,20.3829407 L10.930506,21.7814375 C11.0375001,21.8847266 11.1811852,21.9412149 11.3298752,21.9384454 C11.4785651,21.935676 11.620047,21.8738762 11.7231206,21.7666745 C11.8236936,21.6619868 11.8798205,21.5224204 11.8797283,21.37725 L11.8797283,8.51626675 C11.8797283,6.43946913 13.5611164,4.7562855 15.6349215,4.7562855 L15.7470406,4.7562855 C17.8210452,4.7562855 19.5022338,6.43966863 19.5022339,8.51626675 L19.5022339,11.916549 C20.0383907,11.6358971 20.6347126,11.4897263 21.2398811,11.490616 L21.3518007,11.490616 C23.0750839,11.490616 24.5272462,12.6529045 24.9691393,14.2373355 C25.5390575,13.9076207 26.186021,13.7344547 26.8444416,13.7353928 L26.9565608,13.7353928 C28.5415903,13.7353928 29.8971945,14.7185301 30.4482142,16.1090468 C31.0469152,15.7305816 31.7409097,15.5302019 32.4492017,15.5312941 L32.4492017,15.5312941 Z M12.7475544,35.0322442 C14.2060485,37.0378315 16.5360165,38.2246173 19.0158522,38.2250463 L26.7883821,38.2250463 C31.0716525,38.2250463 34.5439544,34.7481559 34.5439544,30.4592995 L34.5439544,19.2912754 C34.5439544,18.1950215 33.6561782,17.3062478 32.5613208,17.3062479 L32.4492017,17.3062479 C31.3543443,17.3062479 30.4667677,18.1950215 30.4667677,19.2912754 L30.4667677,23.2758939 C30.4667677,24.2953402 28.9391943,24.2953402 28.9391943,23.2758939 L28.9391943,17.4955736 C28.9391943,16.3991202 28.0514181,15.5103466 26.9565608,15.5103466 L26.8444416,15.5103466 C25.7495842,15.5103466 24.8620076,16.3991202 24.8620076,17.4953741 L24.8620076,21.9290677 C24.8620076,22.948514 23.3344342,22.948514 23.3344342,21.9290677 L23.3344342,15.2507968 C23.3344342,14.1543434 22.4466581,13.2655697 21.3518007,13.2655697 L21.2396816,13.2655697 C20.1448242,13.2655697 19.2572476,14.1543434 19.2572476,15.2505973 L19.2572476,20.5822415 C19.2572476,21.6016878 17.7296741,21.6016878 17.7296741,20.5822415 L17.7296741,8.51646624 C17.7296741,7.42001284 16.841898,6.53103973 15.7470406,6.53103973 L15.6349215,6.53103973 C14.5400641,6.53103973 13.6524875,7.42001284 13.6524875,8.51626675 L13.6524875,21.3770505 C13.6524875,21.9815363 13.4186732,22.562082 13.0001216,22.9973916 C12.1063605,23.9268632 10.6290612,23.9547933 9.70098599,23.0598351 L8.25041967,21.6611388 C7.89187525,21.3152109 7.40769444,21.1305747 6.90985354,21.149931 C6.41201264,21.1692873 5.9436293,21.3909597 5.61302634,21.763682 L5.25931236,22.1618845 C4.65731468,22.8402616 4.60850974,23.8461581 5.14200623,24.579628 L12.7475544,35.0322442 Z M23.2492476,7.6807597 C23.2492476,8.17650083 22.8472376,8.57832358 22.3514965,8.57832358 C21.8557553,8.57832358 21.4538488,8.17650083 21.4537453,7.6807597 C21.4537453,4.43050161 18.818746,1.79550226 15.5684879,1.79550226 C12.3182298,1.79550226 9.68323046,4.43050158 9.68323046,7.6807597 C9.68329737,8.00153989 9.51220161,8.29798164 9.23440896,8.45839105 C8.95661631,8.61880047 8.61434234,8.61880047 8.3365497,8.45839105 C8.05875705,8.29798164 7.88772818,8.00153989 7.88772818,7.6807597 C7.88772818,3.43878586 11.3265141,0 15.5684879,0 C19.8104617,0 23.2492476,3.43878586 23.2492476,7.6807597 Z"></path>
            </g>
        </g>
    </g>
</svg>