<?xml version="1.0" encoding="UTF-8"?>
<svg width="32px" height="29px" viewBox="0 0 32 29" version="1.1" xmlns="http://www.w3.org/2000/svg" xmlns:xlink="http://www.w3.org/1999/xlink">
    <title>首贷企业</title>
    <defs>
        <linearGradient x1="100%" y1="10.3488887%" x2="0%" y2="89.6511113%" id="linearGradient-1">
            <stop stop-color="#2EBCFF" offset="0%"></stop>
            <stop stop-color="#0665D8" offset="100%"></stop>
        </linearGradient>
        <path d="M70,41.3965745 L68,41.3965745 L68,27.5965745 C68,26.3965745 67.2,25.2965745 66.2,24.9965745 L58.3,22.4965745 C58,22.3965745 57.7,22.4965745 57.4,22.5965745 C57.2,22.7965745 57,23.0965745 57,23.3965745 L57,41.3965745 L56,41.3965745 L56,17.3965745 C56,16.5965745 55.7,15.9965745 55.1,15.4965745 C54.4,14.9965745 53.5,14.8965745 52.6,15.0965745 L44.1,17.4965745 C42.9,17.7965745 42,18.9965745 42,20.2965745 L42,41.4965745 L40,41.4965745 C39.4,41.4965745 39,41.8965745 39,42.4965745 C39,43.0965745 39.4,43.4965745 40,43.4965745 L70,43.4965745 C70.6,43.4965745 71,43.0965745 71,42.4965745 C71,41.8965745 70.6,41.3965745 70,41.3965745 Z M61.5,32.3965745 L63.5,32.3965745 C64.1,32.3965745 64.5,32.7965745 64.5,33.3965745 C64.5,33.9965745 64.1,34.3965745 63.5,34.3965745 L61.5,34.3965745 C60.9,34.3965745 60.5,33.9965745 60.5,33.3965745 C60.5,32.7965745 60.9,32.3965745 61.5,32.3965745 Z M47,24.3965745 L51,24.3965745 C51.6,24.3965745 52,24.7965745 52,25.3965745 C52,25.9965745 51.6,26.3965745 51,26.3965745 L47,26.3965745 C46.4,26.3965745 46,25.9965745 46,25.3965745 C46,24.7965745 46.4,24.3965745 47,24.3965745 Z M47,32.3965745 L51,32.3965745 C51.6,32.3965745 52,32.7965745 52,33.3965745 C52,33.9965745 51.6,34.3965745 51,34.3965745 L47,34.3965745 C46.4,34.3965745 46,33.9965745 46,33.3965745 C46,32.7965745 46.4,32.3965745 47,32.3965745 Z" id="path-2"></path>
    </defs>
    <g id="管理端" stroke="none" stroke-width="1" fill="none" fill-rule="evenodd">
        <g id="01" transform="translate(-904.000000, -161.000000)">
            <g id="3" transform="translate(834.000000, 83.000000)">
                <g id="编组-25" transform="translate(31.000000, 63.000000)">
                    <g id="首贷企业">
                        <use fill="url(#linearGradient-1)" xlink:href="#path-2"></use>
                        <use fill="#7587AC" xlink:href="#path-2"></use>
                    </g>
                </g>
            </g>
        </g>
    </g>
</svg>