<?xml version="1.0" encoding="UTF-8"?>
<svg width="27px" height="32px" viewBox="0 0 27 32" version="1.1" xmlns="http://www.w3.org/2000/svg" xmlns:xlink="http://www.w3.org/1999/xlink">
    <title>首贷订单融资累计</title>
    <defs>
        <linearGradient x1="85.6270053%" y1="0%" x2="14.3729947%" y2="100%" id="linearGradient-1">
            <stop stop-color="#2EBCFF" offset="0%"></stop>
            <stop stop-color="#0665D8" offset="100%"></stop>
        </linearGradient>
        <path d="M436.352882,35.9907107 C437.001119,35.9907107 437.617124,36.3703414 437.882149,36.9970901 C438.23671,37.8315613 437.839172,38.7913822 436.997538,39.1423615 L436.997538,39.1423615 L425.139452,46.8782317 C424.931729,46.9606044 424.720425,47 424.512703,47 C424.254841,47 424.00056,46.9391158 423.771349,46.8316732 L423.771349,46.8316732 L423.764186,46.8316732 L416.0892,43.4973699 L412.407499,45.7214326 C411.787913,46.0939004 411,45.6498041 411,44.926357 L411,44.926357 L411,40.940235 C411,40.6035814 411.182652,40.2955792 411.472748,40.1308338 L411.472748,40.1308338 L415.770453,37.7026301 C415.967431,37.591606 416.185898,37.5343033 416.411528,37.5343033 L416.411528,37.5343033 L429.877672,37.5378847 C430.787353,37.5378847 431.313822,38.2613318 431.313822,38.9632904 C431.313822,39.86939 430.790935,40.4424175 429.881253,40.4424175 L429.881253,40.4424175 L425.46178,40.4424175 C425.168103,40.4424175 424.792054,40.4674874 424.792054,40.8184667 C424.792054,41.169446 425.168103,41.169446 425.46178,41.169446 L429.881253,41.169446 C430.765865,41.169446 431.48573,40.8220481 431.815221,40.1702294 C432.198433,39.4217124 432.055176,38.6839396 432.030106,38.5371013 L432.030106,38.5371013 L435.711807,36.1196419 C435.923111,36.0301063 436.137997,35.9907107 436.352882,35.9907107 Z M427.456631,22.2774482 C427.614214,22.2774482 427.764633,22.3383324 427.879239,22.445775 C428.602686,23.1334079 431.299496,25.7120313 431.825965,26.3710129 C433.104533,27.9719082 433.870957,30.0025741 433.870957,32.2123111 C433.870957,34.2107443 433.240627,36.0587577 432.173363,37.5808618 L432.173363,37.5808618 L431.740011,37.8637941 C431.389032,37.2621153 430.744376,36.8144376 429.877672,36.8144376 L429.877672,36.8144376 L416.354225,36.818019 C415.584219,35.4570789 415.140123,33.8884163 415.140123,32.2158926 C415.140123,30.0061556 415.902966,27.9790711 417.181533,26.3781757 C417.626875,25.8207197 419.634773,23.8009064 420.6149,22.8195786 L420.97784,22.4565193 C421.092445,22.3419138 421.250028,22.2774482 421.411192,22.2774482 L421.411192,22.2774482 Z M427.048349,26.6432009 C426.922999,26.6432009 426.815557,26.6682708 426.726021,26.7184107 C426.636486,26.7685506 426.561276,26.8330162 426.500392,26.9082261 C426.439508,26.9834359 426.378623,27.0765529 426.314158,27.1839955 C426.249692,27.2914382 426.188808,27.3952994 426.131505,27.4955792 L426.131505,27.4955792 L424.587913,30.0419698 L422.865249,27.3415781 C422.714829,27.09446 422.582317,26.9189703 422.471293,26.8079463 C422.360269,26.6969222 422.21343,26.6432009 422.030778,26.6432009 C421.855288,26.6432009 421.70845,26.7005036 421.597426,26.8115277 C421.48282,26.9225518 421.429099,27.0729715 421.429099,27.2592054 C421.429099,27.3630666 421.447006,27.4561835 421.486402,27.5421377 C421.525797,27.6280918 421.60817,27.7677672 421.737101,27.9683268 L421.737101,27.9683268 L423.334415,30.4717403 L422.657527,30.4717403 C422.152546,30.4717403 421.898265,30.6364857 421.898265,30.9623951 C421.898265,31.2954673 422.152546,31.4637941 422.657527,31.4637941 L422.657527,31.4637941 L423.857303,31.4637941 L423.857303,32.2302182 L422.657527,32.2302182 C422.152546,32.2302182 421.898265,32.398545 421.898265,32.7316172 C421.898265,33.0575266 422.152546,33.222272 422.657527,33.222272 L422.657527,33.222272 L423.857303,33.222272 L423.857303,33.6484611 C423.857303,34.3719082 424.100839,34.7336318 424.587913,34.7336318 C425.067823,34.7336318 425.307778,34.3719082 425.307778,33.6484611 L425.307778,33.6484611 L425.307778,33.222272 L426.514717,33.222272 C427.016116,33.222272 427.266816,33.0575266 427.266816,32.7316172 C427.266816,32.398545 427.016116,32.2302182 426.514717,32.2302182 L426.514717,32.2302182 L425.307778,32.2302182 L425.307778,31.4602126 L426.514717,31.4602126 C427.016116,31.4602126 427.266816,31.2918858 427.266816,30.9588137 C427.266816,30.6329043 427.016116,30.4681589 426.514717,30.4681589 L426.514717,30.4681589 L425.834247,30.4681589 L427.370677,27.9325126 C427.467375,27.7749301 427.539004,27.6459989 427.581981,27.5421377 C427.628539,27.4418579 427.650028,27.3272524 427.650028,27.2019026 C427.650028,27.0443201 427.592725,26.9118075 427.481701,26.8043649 C427.370677,26.6969222 427.22742,26.6432009 427.048349,26.6432009 Z M426.973139,20.0891998 C427.374259,20.0891998 427.700168,20.4151091 427.700168,20.8162283 C427.700168,21.2173475 427.374259,21.5432569 426.973139,21.5432569 L426.973139,21.5432569 L421.88394,21.5432569 C421.48282,21.5432569 421.156911,21.2173475 421.156911,20.8162283 C421.156911,20.4151091 421.48282,20.0891998 421.88394,20.0891998 L421.88394,20.0891998 Z M428.470173,15 C428.953665,15 429.401343,15.1504197 429.773811,15.408282 L429.773811,15.408282 L429.748741,15.4405148 L427.313374,19.3621712 L421.565193,19.3621712 L419.258758,15.4405148 L419.237269,15.4011192 C419.609737,15.1468383 420.053833,15 420.533744,15 C421.375378,15 422.109569,15.4584219 422.517851,16.1424734 C422.922552,15.4584219 423.660325,15 424.501959,15 C425.343593,15 426.077784,15.4584219 426.486066,16.1424734 C426.890767,15.4584219 427.628539,15 428.470173,15 Z" id="path-2"></path>
    </defs>
    <g id="管理端" stroke="none" stroke-width="1" fill="none" fill-rule="evenodd">
        <g id="01" transform="translate(-1276.000000, -161.000000)">
            <g id="3" transform="translate(834.000000, 83.000000)">
                <g id="编组-25" transform="translate(31.000000, 63.000000)">
                    <g id="首贷订单融资累计">
                        <use fill="url(#linearGradient-1)" xlink:href="#path-2"></use>
                        <use fill="#7587AC" xlink:href="#path-2"></use>
                    </g>
                </g>
            </g>
        </g>
    </g>
</svg>