<?xml version="1.0" encoding="UTF-8"?>
<svg width="30px" height="30px" viewBox="0 0 30 30" version="1.1" xmlns="http://www.w3.org/2000/svg" xmlns:xlink="http://www.w3.org/1999/xlink">
    <title>首贷企业融资累计</title>
    <defs>
        <linearGradient x1="100%" y1="0%" x2="0%" y2="100%" id="linearGradient-1">
            <stop stop-color="#2EBCFF" offset="0%"></stop>
            <stop stop-color="#0665D8" offset="100%"></stop>
        </linearGradient>
        <path d="M221.999256,13 C213.717016,13 207.001517,19.7154988 207,27.9992563 C207,36.285929 213.715499,43 221.999256,43 C230.284442,43 237,36.2845012 237,27.9992563 C237,19.7155286 230.285989,13 221.999256,13 Z M228.632831,27.8039342 C228.68352,28.0439073 228.708865,28.3167217 228.708865,28.6238051 C228.708865,28.9994864 228.68352,29.3154941 228.632831,29.5718878 L223.718067,29.5718878 L223.718067,31.8258264 L228.632831,31.8258264 C228.68352,32.0643419 228.708865,32.3371562 228.708865,32.6442397 C228.708865,33.0214083 228.68352,33.3359286 228.632831,33.5923224 L223.718067,33.5923224 L223.718067,37.61121 C223.510846,37.6440215 223.299192,37.6708538 223.077068,37.688732 C222.854973,37.7066103 222.631391,37.7155643 222.410754,37.7155643 C222.188659,37.7155643 221.968021,37.70664 221.745927,37.688732 C221.525289,37.6708538 221.310631,37.6455387 221.104927,37.61121 L221.104927,33.5923224 L216.39438,33.5923224 C216.325783,33.3865886 216.291543,33.0974429 216.291543,32.7217617 C216.291543,32.5667177 216.300468,32.4146782 216.316888,32.2596342 C216.334767,32.1060776 216.360082,31.9615047 216.39441,31.8258264 L221.104957,31.8258264 L221.104957,29.5718878 L216.39441,29.5718878 C216.325813,29.3661541 216.291573,29.0770084 216.291573,28.7013271 C216.291573,28.5477705 216.300497,28.3942437 216.316918,28.2391997 C216.334796,28.0856431 216.360111,27.9410702 216.39444,27.8039045 L220.080899,27.8039045 L215.370352,19.5097651 C215.592447,19.475496 215.835455,19.4501214 216.099315,19.4337305 C216.36612,19.4158522 216.618082,19.4068982 216.856597,19.4068982 C217.095113,19.4068982 217.342523,19.4158225 217.598976,19.4322431 C217.855429,19.4486637 218.084901,19.4740086 218.290665,19.5082777 L222.488424,27.240457 L226.611636,19.5082777 C226.832274,19.4740086 227.058831,19.448634 227.28985,19.4322431 C227.517924,19.415882 227.754952,19.4068982 227.993467,19.4068982 C228.231983,19.4068982 228.470469,19.4158225 228.708984,19.4322431 C228.948957,19.4486042 229.171112,19.4740086 229.375298,19.5082777 L224.742244,27.8024171 L228.63292,27.8024171 L228.632831,27.8039342 Z" id="path-2"></path>
    </defs>
    <g id="管理端" stroke="none" stroke-width="1" fill="none" fill-rule="evenodd">
        <g id="01" transform="translate(-1072.000000, -159.000000)">
            <g id="3" transform="translate(834.000000, 83.000000)">
                <g id="编组-25" transform="translate(31.000000, 63.000000)">
                    <g id="首贷企业融资累计">
                        <use fill="url(#linearGradient-1)" xlink:href="#path-2"></use>
                        <use fill="#7587AC" xlink:href="#path-2"></use>
                    </g>
                </g>
            </g>
        </g>
    </g>
</svg>